<?xml version="1.0" standalone="no"?><!DOCTYPE svg PUBLIC "-//W3C//DTD SVG 1.1//EN" "http://www.w3.org/Graphics/SVG/1.1/DTD/svg11.dtd"><svg t="1763827293338" class="icon" viewBox="0 0 1024 1024" version="1.1" xmlns="http://www.w3.org/2000/svg" p-id="6847" width="256" height="256" xmlns:xlink="http://www.w3.org/1999/xlink"><path d="M632.7296 385.9968a113.664 113.664 0 0 0-116.8896 113.664 30.72 30.72 0 0 0 61.44 0 52.2752 52.2752 0 0 1 53.76-52.2752 52.2752 52.2752 0 0 1 13.8752 102.4 64.6144 64.6144 0 0 0-46.08 61.9008v27.2384a30.72 30.72 0 1 0 61.44 0v-27.2384a3.584 3.584 0 0 1 2.7136-3.1744 113.7152 113.7152 0 0 0-30.208-222.3616z" fill="#231815" p-id="6848"></path><path d="M629.504 733.44m-32.1024 0a32.1024 32.1024 0 1 0 64.2048 0 32.1024 32.1024 0 1 0-64.2048 0Z" fill="#231815" p-id="6849"></path><path d="M962.2528 813.2096l-55.5008-47.616a351.1808 351.1808 0 0 0 58.4704-223.488C953.2416 382.5664 832.512 250.88 677.9392 221.5424A353.8944 353.8944 0 0 0 57.344 425.7792a351.1808 351.1808 0 0 0 58.4704 223.488l-55.5008 47.616a62.5664 62.5664 0 0 0 40.96 110.0288h252.2624c4.3008 4.608 8.704 9.1648 13.312 13.568a360.704 360.704 0 0 0 251.648 102.7584H921.6a62.5664 62.5664 0 0 0 40.96-110.0288zM101.0688 745.472h-0.6144a1.9456 1.9456 0 0 1-0.5632-1.4336 1.9456 1.9456 0 0 1 0.4608-0.512l58.368-50.0224a57.5488 57.5488 0 0 0 9.7792-76.1344 290.3552 290.3552 0 0 1-49.7664-186.9824 292.352 292.352 0 0 1 463.5648-213.8112c-5.12 0.4096-10.24 0.9728-15.36 1.5872-1.0752 0-2.0992 0.3584-3.1744 0.4608-4.5056 0.6144-8.96 1.3312-13.4144 2.0992l-5.5808 1.024c-3.7376 0.7168-7.424 1.4848-11.1104 2.304l-5.7344 1.3312c-3.84 0.9216-7.68 1.9456-11.4688 3.0208l-4.7104 1.28c-5.12 1.5872-10.5984 3.2256-15.8208 5.12l-2.2016 0.8192c-4.5056 1.5872-8.96 3.2768-13.3632 5.12l-5.12 2.1504c-3.5328 1.4336-7.0144 2.9696-10.24 4.5568l-5.12 2.5088c-3.5328 1.6896-7.0656 3.4304-10.5472 5.12l-4.4544 2.304c-5.12 2.6624-9.728 5.4272-14.5408 8.2944l-1.1264 0.7168c-4.4032 2.6624-8.704 5.4784-13.0048 8.3456l-4.4544 3.072c-3.1744 2.2016-6.3488 4.5056-9.5232 6.8096l-4.7616 3.584c-3.1232 2.4064-6.1952 5.12-9.2672 7.424l-4.096 3.3792c-4.352 3.6864-8.6528 7.4752-12.8512 11.3664a355.0208 355.0208 0 0 0-112.64 261.8368c0 5.12 0 10.24 0.512 15.0016 0 1.6384 0 3.2768 0.3072 5.12 0 3.5328 0.512 7.0656 0.8704 10.5984s0.8704 7.7312 1.3312 11.52l0.6144 4.3008A342.6304 342.6304 0 0 0 307.2 745.472z m821.0944 116.2752H618.496c-135.5264 0-254.0032-94.464-288.5632-218.4192a3.7888 3.7888 0 0 0 0-0.7168c-1.0752-3.9936-2.048-7.9872-2.9696-11.9808-0.3072-1.28-0.5632-2.6112-0.8704-3.8912-0.6144-3.0208-1.2288-6.0928-1.792-9.1136 0-1.6896-0.5632-3.328-0.8192-5.12-0.4608-2.816-0.8192-5.632-1.2288-8.448l-0.6144-5.12c-0.3072-2.9696-0.5632-5.9904-0.8192-9.0112 0-1.536 0-3.072-0.3584-4.608 0-4.5056-0.4096-9.0624-0.4608-13.6192A293.4272 293.4272 0 0 1 412.8768 355.328c3.6352-3.3792 7.3216-6.656 11.1104-9.8304 1.1264-0.9728 2.3552-1.8944 3.5328-2.816 2.6112-2.1504 5.12-4.3008 7.936-6.3488 1.4336-1.1264 2.9184-2.1504 4.352-3.2256 2.5088-1.8432 5.12-3.6352 7.4752-5.12l4.7616-3.2256c2.4576-1.5872 5.12-3.2256 7.4752-4.7616l5.12-2.9696L472.064 312.32l5.12-2.7136c2.6112-1.3824 5.12-2.6624 7.936-3.9424l5.12-2.4064c2.7648-1.28 5.5808-2.5088 8.448-3.7376l4.7104-1.9456c3.1232-1.28 6.2976-2.4576 9.472-3.584 1.3312-0.4608 2.6112-1.024 3.9936-1.4848 4.096-1.4336 8.2944-2.7136 12.4928-3.9936l1.1264-0.3584c4.7104-1.3312 9.4208-2.56 14.2336-3.6864l2.304-0.512c3.8912-0.8704 7.8336-1.6896 11.776-2.4576l4.5056-0.7168c3.2256-0.5632 6.5024-1.0752 9.7792-1.4848 1.7408 0 3.5328-0.4096 5.12-0.6144 3.072-0.3584 6.144-0.7168 9.216-0.9728l5.6832-0.3584q4.4544-0.3072 8.9088-0.4608h19.7632c4.7104 0 9.3696 0.4096 14.08 0.768 3.6352 0 7.168 0.6656 10.752 1.0752s6.7072 0.8704 10.24 1.4336a293.9392 293.9392 0 0 1 246.8864 266.24 290.3552 290.3552 0 0 1-49.7664 186.9824 57.4976 57.4976 0 0 0 9.8304 76.1344l58.2144 49.9712 0.4608 0.4608a2.0992 2.0992 0 0 1-0.3072 1.792z" fill="#231815" p-id="6850"></path></svg>